<svg xmlns="http://www.w3.org/2000/svg" width="50" height="50" viewBox="0 0 50 50">
  <g id="Group_24340" data-name="Group 24340" transform="translate(-1474 -31)">
    <g id="Rectangle_1379" data-name="Rectangle 1379" transform="translate(1474 31)" fill="#0074dd" stroke="#707070" stroke-width="1" opacity="0">
      <rect width="50" height="50" stroke="none"/>
      <rect x="0.5" y="0.5" width="49" height="49" fill="none"/>
    </g>
    <g id="Group_24341" data-name="Group 24341" transform="translate(-735.26 -2791.106)">
      <path id="Path_115" data-name="Path 115" d="M2228.046,3019.7a4.7,4.7,0,0,0,1.525,2.32c1.462,1.349,2.984,2.633,4.479,3.947a.274.274,0,0,0,.415.015,36.012,36.012,0,0,0,4.938-4.438,4.173,4.173,0,0,0,1.082-1.862,9.2,9.2,0,0,1,3.639,1.051,10.051,10.051,0,0,1,5.59,9.5,6.39,6.39,0,0,1-.237,1.581,4.046,4.046,0,0,1-3.242,2.954,16.861,16.861,0,0,1-4.115.392q-8.2,0-16.4-.014a12.532,12.532,0,0,1-3.942-.533,4.029,4.029,0,0,1-2.9-3.618,10.19,10.19,0,0,1,9.065-11.3A.55.55,0,0,1,2228.046,3019.7Zm14.965,8.259c0-.541-.009-1.036,0-1.531.008-.322-.13-.451-.447-.441-.411.012-.822,0-1.233,0-.447,0-.5.052-.5.489,0,.482,0,.963,0,1.481-.554,0-1.061.006-1.569,0-.283,0-.413.12-.41.4,0,.436.012.872,0,1.307-.013.361.147.488.494.476.481-.016.964,0,1.488,0,0,.549.006,1.056,0,1.563,0,.283.119.412.4.408.448-.006.9-.008,1.345,0,.321.007.446-.138.438-.454-.012-.494,0-.988,0-1.518.536,0,1.031-.009,1.526,0,.321.008.451-.128.44-.446-.013-.423-.016-.847,0-1.27.013-.332-.109-.481-.454-.47C2244.04,3027.967,2243.555,3027.955,2243.01,3027.955Z" transform="translate(0 -170.837)" fill="#0074dd"/>
      <path id="Path_116" data-name="Path 116" d="M2305.513,2838.378a15.2,15.2,0,0,1-2.588,7.777,10.954,10.954,0,0,1-2.3,2.582,5.368,5.368,0,0,1-7.372-.079,13.784,13.784,0,0,1-4.042-6.253,11.431,11.431,0,0,1-.693-4.837,8.51,8.51,0,0,1,16.889-.4C2305.469,2837.586,2305.482,2838.011,2305.513,2838.378Z" transform="translate(-62.717)" fill="#0074dd"/>
    </g>
  </g>
</svg>
